<svg width="28" height="28" viewBox="0 0 28 28" fill="none" xmlns="http://www.w3.org/2000/svg">
<g clip-path="url(#clip0)">
<path fill-rule="evenodd" clip-rule="evenodd" d="M24.5 1.75H3.5C3.03587 1.75 2.59075 1.93437 2.26256 2.26256C1.93437 2.59075 1.75 3.03587 1.75 3.5V24.5C1.75 24.9641 1.93437 25.4092 2.26256 25.7374C2.59075 26.0656 3.03587 26.25 3.5 26.25H24.5C24.9641 26.25 25.4092 26.0656 25.7374 25.7374C26.0656 25.4092 26.25 24.9641 26.25 24.5V3.5C26.25 3.03587 26.0656 2.59075 25.7374 2.26256C25.4092 1.93437 24.9641 1.75 24.5 1.75ZM3.5 0C2.57174 0 1.6815 0.368749 1.02513 1.02513C0.368749 1.6815 0 2.57174 0 3.5L0 24.5C0 25.4283 0.368749 26.3185 1.02513 26.9749C1.6815 27.6313 2.57174 28 3.5 28H24.5C25.4283 28 26.3185 27.6313 26.9749 26.9749C27.6313 26.3185 28 25.4283 28 24.5V3.5C28 2.57174 27.6313 1.6815 26.9749 1.02513C26.3185 0.368749 25.4283 0 24.5 0L3.5 0Z" fill="black"/>
<path d="M9.1875 10.5578H11.4975C11.4975 9.191 12.299 8.13575 13.8775 8.13575C15.0762 8.13575 16.1753 8.736 16.1753 10.1798C16.1753 11.291 15.5208 11.802 14.4865 12.579C13.3087 13.4348 12.376 14.434 12.4425 16.0563L12.4548 16.8665H14.742V16.2453C14.742 14.9888 15.2197 14.623 16.5095 13.6448C17.5752 12.8345 18.6865 11.935 18.6865 10.0468C18.6865 7.4025 16.4535 6.125 14.0087 6.125C11.6883 6.125 9.13325 7.25725 9.18925 10.5578H9.1875ZM11.921 20.2108C11.921 21.1435 12.6648 21.833 13.6885 21.833C14.7543 21.833 15.4875 21.1435 15.4875 20.2108C15.4875 19.2448 14.7525 18.5658 13.6868 18.5658C12.6648 18.5658 11.921 19.2448 11.921 20.2108Z" fill="black"/>
</g>
<defs>
<clipPath id="clip0">
<rect width="28" height="28" fill="white"/>
</clipPath>
</defs>
</svg>
